<?xml version="1.0" encoding="utf-8"?>
<!-- Generator: Adobe Illustrator 16.0.0, SVG Export Plug-In . SVG Version: 6.00 Build 0)  -->
<!DOCTYPE svg PUBLIC "-//W3C//DTD SVG 1.1//EN" "http://www.w3.org/Graphics/SVG/1.1/DTD/svg11.dtd">
<svg version="1.1" id="Calque_1" xmlns="http://www.w3.org/2000/svg" xmlns:xlink="http://www.w3.org/1999/xlink" x="0px" y="0px"
	 width="50px" height="50px" viewBox="0 0 50 50" enable-background="new 0 0 50 50" xml:space="preserve">
<g id="Calque_3_3_">
	<path fill="#FFFFFF" stroke="#FFFFFF" stroke-width="2" stroke-miterlimit="10" d="M49.59,9.921l-5.087,1.169
		c0,0,3.255-3.925,3.739-4.794c0.645-1.155-6.252,2.572-6.252,2.572c0.41-2.514-18.065-10.136-18.065,8.068
		c0,0-1.267,0.21-1.87,0.175C10.891,16.469,4.049,7.056,4.049,7.056C-0.858,16.409,8.493,21.32,8.493,21.32l-5.961-2.223
		C1.07,24.592,9.663,29.27,9.663,29.27l-4.588,0.378c1.288,4.911,9.501,6.987,9.501,6.987s0.584,2.57-14.498,4.209
		c0,0,33.729,17.127,44.076-19.29c0.42-1.478,0.177-6.141,0.177-6.141C45.556,14.304,51.36,9.223,49.59,9.921z"/>
</g>
</svg>
